<?xml version="1.0" standalone="yes"?>

<svg version="1.1" viewBox="0.0 0.0 960.0 720.0" fill="none" stroke="none" stroke-linecap="square" stroke-miterlimit="10" xmlns="http://www.w3.org/2000/svg" xmlns:xlink="http://www.w3.org/1999/xlink"><clipPath id="p.0"><path d="m0 0l960.0 0l0 720.0l-960.0 0l0 -720.0z" clip-rule="nonzero"></path></clipPath><g clip-path="url(#p.0)"><path fill="#000000" fill-opacity="0.0" d="m0 0l960.0 0l0 720.0l-960.0 0z" fill-rule="nonzero"></path><path fill="#ff9900" fill-opacity="0.5192" d="m652.2782 549.49585l0 0c0 -15.759644 12.775757 -28.5354 28.535461 -28.5354l0 0c7.568054 0 14.826172 3.0064087 20.177612 8.357788c5.3513794 5.3514404 8.357788 12.609558 8.357788 20.177612l0 0c0 15.759705 -12.775757 28.535461 -28.5354 28.535461l0 0c-15.759705 0 -28.535461 -12.775757 -28.535461 -28.535461z" fill-rule="nonzero"></path><path fill="#ff9900" fill-opacity="0.5192" d="m747.2467 590.17847l0 0c0 -42.773804 34.67505 -77.44879 77.44885 -77.44879l0 0c20.54071 0 40.240112 8.159729 54.764587 22.684204c14.524475 14.524475 22.684204 34.223877 22.684204 54.764587l0 0c0 42.773804 -34.674988 77.44885 -77.44879 77.44885l0 0c-42.773804 0 -77.44885 -34.67505 -77.44885 -77.44885z" fill-rule="nonzero"></path><path fill="#ff9900" fill-opacity="0.5192" d="m807.40155 377.28348l0 0c0 -3.8268738 3.102295 -6.929138 6.929138 -6.929138l0 0c1.8377686 0 3.6002197 0.730011 4.899658 2.02948c1.2994385 1.299469 2.02948 3.0619202 2.02948 4.899658l0 0c0 3.8268433 -3.102234 6.9291077 -6.929138 6.9291077l0 0c-3.8268433 0 -6.929138 -3.1022644 -6.929138 -6.9291077z" fill-rule="nonzero"></path><path fill="#ff9900" fill-opacity="0.5192" d="m195.57742 689.2808l0 0c0 -55.671997 45.13112 -100.80316 100.80316 -100.80316l0 0c26.73465 0 52.37433 10.6203 71.278595 29.524597c18.904236 18.904236 29.524536 44.543945 29.524536 71.278564l0 0c0 55.67206 -45.131104 100.80316 -100.80313 100.80316l0 0c-55.672043 0 -100.80316 -45.131104 -100.80316 -100.80316z" fill-rule="nonzero"></path><path fill="#ff9900" fill-opacity="0.5192" d="m841.12335 524.4068l0 0c0 -21.987 17.824036 -39.811005 39.811035 -39.811005l0 0c10.558533 0 20.684631 4.1943665 28.150635 11.66037c7.4660034 7.466034 11.6604 17.592102 11.6604 28.150635l0 0c0 21.98706 -17.824036 39.811035 -39.811035 39.811035l0 0c-21.987 0 -39.811035 -17.823975 -39.811035 -39.811035z" fill-rule="nonzero"></path><path fill="#ff9900" fill-opacity="0.5192" d="m520.937 689.8018l0 0c0 -53.46289 43.34027 -96.80316 96.80316 -96.80316l0 0c25.673767 0 50.29602 10.198914 68.450134 28.353027c18.154114 18.154114 28.353027 42.776367 28.353027 68.450134l0 0c0 53.46295 -43.34027 96.80316 -96.80316 96.80316l0 0c-53.46289 0 -96.80316 -43.34021 -96.80316 -96.80316z" fill-rule="nonzero"></path><path fill="#ff9900" fill-opacity="0.5192" d="m453.46194 640.35956l0 0c0 -34.398193 27.885254 -62.283447 62.283478 -62.283447l0 0c16.518616 0 32.360657 6.5620117 44.041016 18.242432c11.68042 11.68042 18.242432 27.52246 18.242432 44.041016l0 0c0 34.398254 -27.885254 62.28351 -62.283447 62.28351l0 0c-34.398224 0 -62.283478 -27.885254 -62.283478 -62.28351z" fill-rule="nonzero"></path><path fill="#ff9900" fill-opacity="0.5192" d="m763.2808 473.57217l0 0c0 -6.0881653 4.935486 -11.023621 11.023621 -11.023621l0 0c2.923645 0 5.727539 1.1614075 7.794922 3.2287598c2.0673218 2.0673218 3.2286987 4.871216 3.2286987 7.794861l0 0c0 6.088196 -4.935425 11.023621 -11.023621 11.023621l0 0c-6.088135 0 -11.023621 -4.935425 -11.023621 -11.023621z" fill-rule="nonzero"></path><path fill="#ff9900" fill-opacity="0.5192" d="m920.7454 678.65094l0 0c0 -6.088196 4.935425 -11.023621 11.023621 -11.023621l0 0c2.923645 0 5.727539 1.161377 7.794861 3.2286987c2.0673218 2.0673828 3.2287598 4.871277 3.2287598 7.794922l0 0c0 6.088135 -4.935486 11.023621 -11.023621 11.023621l0 0c-6.088196 0 -11.023621 -4.935486 -11.023621 -11.023621z" fill-rule="nonzero"></path><path fill="#ff9900" fill-opacity="0.5192" d="m746.55316 700.47766l0 0c0 -3.8268433 3.102295 -6.929077 6.929138 -6.929077l0 0c1.8377686 0 3.6002197 0.72998047 4.899658 2.02948c1.2994385 1.2994385 2.02948 3.0618896 2.02948 4.899597l0 0c0 3.8269043 -3.102234 6.929138 -6.929138 6.929138l0 0c-3.8268433 0 -6.929138 -3.102234 -6.929138 -6.929138z" fill-rule="nonzero"></path><path fill="#ff9900" fill-opacity="0.5192" d="m660.03723 577.45404l0 0c0 -6.088135 4.935425 -11.023621 11.023621 -11.023621l0 0c2.923645 0 5.727539 1.161438 7.794861 3.2287598c2.0673218 2.0673218 3.2287598 4.871216 3.2287598 7.794861l0 0c0 6.088196 -4.935486 11.023621 -11.023621 11.023621l0 0c-6.088196 0 -11.023621 -4.935425 -11.023621 -11.023621z" fill-rule="nonzero"></path><path fill="#ff9900" fill-opacity="0.5192" d="m893.66974 613.77954l0 0c0 -6.088196 4.935486 -11.023621 11.023621 -11.023621l0 0c2.923645 0 5.727539 1.161377 7.794922 3.2286987c2.0673218 2.0673828 3.2286987 4.871277 3.2286987 7.794922l0 0c0 6.088135 -4.935425 11.023621 -11.023621 11.023621l0 0c-6.088135 0 -11.023621 -4.935486 -11.023621 -11.023621z" fill-rule="nonzero"></path><path fill="#ff9900" fill-opacity="0.5192" d="m124.617256 704.5722l0 0c0 -6.088196 4.9354477 -11.023621 11.023628 -11.023621l0 0c2.923645 0 5.727539 1.161377 7.794876 3.2286987c2.0673218 2.0673218 3.2287445 4.871277 3.2287445 7.794922l0 0c0 6.088135 -4.93544 11.023621 -11.023621 11.023621l0 0c-6.0881805 0 -11.023628 -4.935486 -11.023628 -11.023621z" fill-rule="nonzero"></path><path fill="#ff9900" fill-opacity="0.5192" d="m290.981 589.6352l0 0c0 -14.037598 11.37973 -25.417358 25.417328 -25.417358l0 0c6.741089 0 13.206085 2.6779175 17.972748 7.44458c4.766693 4.7666626 7.44458 11.231689 7.44458 17.972778l0 0c0 14.037598 -11.37973 25.417297 -25.417328 25.417297l0 0c-14.037598 0 -25.417328 -11.3797 -25.417328 -25.417297z" fill-rule="nonzero"></path></g></svg>

